<svg width="559" height="297" viewBox="0 0 559 297" fill="none" xmlns="http://www.w3.org/2000/svg">
<path d="M451.906 271.564C451.906 271.564 451.906 271.534 451.906 271.513C452.231 264.552 460.332 258.574 469.997 260.041C477.355 261.086 483.677 265.208 486.339 269.965C509.979 264.572 511.524 281.14 488.88 286.256C466.562 291.29 440.97 285.938 440.107 279.889C439.182 273.974 444.375 269.832 451.906 271.564Z" fill="#1356C5" fill-opacity="0.1"/>
<path d="M407.213 108.721C407.213 108.721 407.213 108.635 407.213 108.577C408.139 88.9513 431.194 72.1005 458.705 76.2337C479.648 79.1819 497.641 90.8011 505.22 104.212C572.506 89.0091 576.903 135.718 512.452 150.14C448.927 164.332 376.087 149.244 373.628 132.191C370.996 115.514 385.778 103.837 407.213 108.721Z" fill="#1356C5" fill-opacity="0.1"/>
<path d="M34.5542 220.09C34.5542 220.09 34.5542 220.003 34.5542 219.944C35.4799 200.103 58.5352 183.067 86.0454 187.245C106.989 190.226 124.982 201.973 132.561 215.532C199.847 200.161 204.244 247.383 139.793 261.964C76.2678 276.312 3.42812 261.059 0.969275 243.818C-1.66314 226.957 13.1189 215.152 34.5542 220.09Z" fill="#1356C5" fill-opacity="0.1"/>
<path d="M170.754 21.72C170.754 21.72 170.754 21.6724 170.754 21.6407C171.261 10.8574 183.887 1.59864 198.952 3.86964C210.421 5.48952 220.274 11.8737 224.424 19.2426C261.271 10.8891 263.679 36.5531 228.385 44.4778C193.597 52.2754 153.709 43.9854 152.362 34.6155C150.921 25.4521 159.016 19.0361 170.754 21.72Z" fill="#1356C5" fill-opacity="0.1"/>
<path d="M83.7695 112.173C207.366 122.766 288.384 198.653 288.384 198.653L228.821 216.984C228.821 216.984 136.723 134.155 83.7695 112.173Z" fill="#4FB0FF"/>
<path d="M210.117 209.226C210.117 209.226 207.273 145.627 107.334 95.715C131.571 98.2908 228.406 115.266 262.823 164.144C296.991 212.67 210.117 209.215 210.117 209.215V209.226Z" fill="#C3E2FF"/>
<path d="M218.477 194.288L225.025 178.213L217.68 177.323L214.794 186.189C214.794 186.189 202.391 185.961 199.422 191.909L218.477 194.288Z" fill="#1B1B4F"/>
<path d="M214.898 181.192C216.522 176.144 218.157 171.085 219.781 166.037C222.729 156.882 228.977 130.09 229.722 128.269C230.105 127.338 230.549 126.428 231.129 125.601C231.418 125.187 249.625 106.97 257.611 98.9013C259.173 97.329 282.603 102.098 279.22 105.563L246.521 136.845L223.867 185.185L214.888 181.202L214.898 181.192Z" fill="#2A2A63"/>
<path d="M219.966 185.382C220.1 185.382 220.224 185.299 220.276 185.154L237.521 132.232L272.888 100.432C273.023 100.308 273.033 100.112 272.909 99.9773C272.785 99.8428 272.588 99.8325 272.454 99.9566L237.014 131.818C237.014 131.818 236.941 131.901 236.921 131.963L219.645 184.968C219.593 185.134 219.687 185.32 219.852 185.371C219.883 185.382 219.914 185.392 219.955 185.392L219.966 185.382Z" fill="#1B1B4F"/>
<path d="M257.609 98.8909L260.164 93.0462L295.181 80.7052C295.181 80.7052 304.832 96.6254 296.07 108.542C290.184 116.549 257.609 98.8909 257.609 98.8909Z" fill="#383883"/>
<path d="M267.873 33.7614L236.88 41.8094C234.553 42.4715 233.167 44.7576 233.704 47.0541C234.263 49.4023 236.642 50.9229 239.084 50.4885L274.296 44.2197C277.886 43.5783 267.873 33.7614 267.873 33.7614Z" fill="#FF9F81"/>
<path d="M236.807 50.3542C229.814 46.7336 210.729 31.703 210.729 31.703L213.356 27.8859L239.993 40.8165C242 42.0165 242.828 44.7268 241.886 47.0233C240.914 49.3715 238.1 51.0369 236.797 50.3645L236.807 50.3542Z" fill="#FF9F81"/>
<path d="M206.529 25.1239C208.733 22.6723 211.298 20.9758 212.239 22.7654C213.967 26.0549 213.76 27.8135 214.546 30.9479C213.502 31.31 211.236 31.9513 211.236 31.9513C211.236 31.9513 207.398 30.0479 206.529 25.1136V25.1239Z" fill="#FF9F81"/>
<path d="M211.236 31.9617C208.764 31.4651 202.236 27.8445 202.919 26.7066C203.343 25.9929 206.571 26.5411 208.039 26.9859" fill="#FF9F81"/>
<path d="M211.216 22.9514C211.216 22.9514 212.675 24.8445 212.747 24.3997C212.975 22.9618 208.102 16.8171 207.399 16.8378C206.995 16.8482 209.954 21.7825 211.216 22.9514Z" fill="#FF9F81"/>
<path d="M209.529 23.7997L211.133 22.7549C211.133 22.7549 205.433 16.3723 204.585 16.4033C204.098 16.424 209.529 23.7997 209.529 23.7997Z" fill="#FF9F81"/>
<path d="M208.898 25.0202L210.088 23.5617C210.088 23.5617 202.961 16.8584 202.433 17.5308C201.874 18.2342 208.898 25.0202 208.898 25.0202Z" fill="#FF9F81"/>
<path d="M208.671 28.134L208.588 24.5237C207.461 22.9307 201.833 19.248 201.575 19.9101C201.347 20.5101 206.571 25.8065 208.671 28.134Z" fill="#FF9F81"/>
<path d="M250.805 37.6199L254.208 50.7678L276.842 47.1989C280.318 45.4197 281.456 36.9268 279.935 33.4097C275.145 27.9064 250.815 37.6302 250.815 37.6302L250.805 37.6199Z" fill="#F8B53E"/>
<path d="M285.706 91.1323C290.33 89.1979 296.195 90.8841 298.419 95.1874L312.86 146.838L294.106 149.331L275.061 101.384C272.796 96.6046 285.716 91.1323 285.716 91.1323H285.706Z" fill="#383883"/>
<path d="M339.301 197.619L326.97 182.961L323.267 189.333L328.087 197.909C328.087 197.909 323.701 204.964 326.298 213.156L339.311 197.629L339.301 197.619Z" fill="#1B1B4F"/>
<path d="M299.112 136.927C303.653 135.231 308.743 137.445 310.791 142.017L333.177 187.74L323.608 190.998C323.608 190.998 296.96 158.879 294.105 149.62C291.726 141.882 294.84 138.52 299.102 136.927H299.112Z" fill="#383883"/>
<path d="M307.502 150.138C307.502 150.138 307.585 150.138 307.616 150.117C307.781 150.055 307.864 149.869 307.802 149.703C307.698 149.424 297.064 121.587 293.537 98.6635C293.506 98.4876 293.34 98.3635 293.164 98.3945C292.988 98.4256 292.864 98.5911 292.895 98.7669C296.433 121.763 307.088 149.662 307.202 149.941C307.254 150.065 307.378 150.148 307.502 150.148V150.138Z" fill="#1B1B4F"/>
<path d="M297.468 34.5374C297.468 34.5374 272.992 29.2617 267.334 32.9961C260.083 37.7856 257.6 95.715 257.786 95.7771C280.327 102.46 302.878 102.573 302.878 102.573C302.878 102.573 306.592 36.2029 297.468 34.5374Z" fill="#FFD859"/>
<path d="M287.847 71.209C279.623 72.1503 271.079 69.8021 265.555 65.0953L287.847 71.209Z" fill="#F8B53E"/>
<path d="M274.233 31.6723C279.25 31.5999 285.643 32.4482 290.454 33.2344C289.688 36.1101 287.226 38.417 281.94 38.0756C276.106 37.7032 274.399 35.086 274.244 31.662L274.233 31.6723Z" fill="#F8B53E"/>
<path d="M257.786 95.7772C257.786 95.7772 257.775 95.2497 257.806 94.298C267.468 95.529 277.306 96.2945 286.709 96.5531C298.543 93.0463 302.36 70.6193 302.795 51.4819C304.595 71.6434 302.867 102.574 302.867 102.574C302.867 102.574 280.316 102.449 257.775 95.7772H257.786Z" fill="#F8B53E"/>
<path d="M272.04 5.004L274.937 6.44189C273.013 9.64869 271.533 13.0727 270.499 16.6623C269.123 12.8245 269.713 8.33494 272.04 4.99365V5.004Z" fill="#1B1B4F"/>
<path d="M287.475 24.8137C287.227 26.986 286.658 33.4514 285.634 34.4858C284.423 35.7065 282.272 35.6755 280.699 35.4479C279.065 35.2099 277.327 34.4755 276.799 32.7686C276.613 32.1583 276.965 27.2447 277.203 24.1206L287.465 24.8137H287.475Z" fill="#FF9F81"/>
<path d="M286.989 26.5101C285.809 32.3237 280.203 33.3375 276.789 32.6651C276.654 31.7237 276.985 27.1204 277.213 24.1309C277.213 24.1309 287.216 24.8033 286.989 26.5101Z" fill="#B96753"/>
<path d="M272.01 13.2797C270.023 12.7624 267.975 13.921 267.437 15.8451C266.91 17.7692 268.089 19.776 270.075 20.2933L272.01 13.2797Z" fill="#B96753"/>
<path d="M277.079 3.37964C280.244 3.5555 290.754 4.53823 291.096 8.40708C291.189 9.44154 289.761 26.4376 285.179 28.7341C280.41 31.1133 274.069 30.1306 271.483 27.5445C266.124 22.186 271.783 3.10033 277.079 3.38998V3.37964Z" fill="#FF9F81"/>
<path d="M279.86 30.4308C281.722 30.4308 283.615 30.1411 285.322 29.4791C285.488 29.417 285.571 29.2308 285.508 29.0653C285.446 28.8998 285.26 28.817 285.095 28.8791C280.305 30.7411 273.964 29.5618 271.709 27.3171C268.502 24.1103 269.34 15.2553 272.133 8.99689C273.654 5.60388 275.485 3.60739 277.067 3.71083C282.033 3.97979 290.495 5.2832 290.784 8.43829C290.805 8.61414 290.96 8.74862 291.136 8.72793C291.312 8.70724 291.446 8.55207 291.426 8.37622C291.043 4.04186 279.426 3.18326 277.098 3.05913C275.205 2.94534 273.198 5.02459 271.543 8.72793C268.678 15.1519 267.747 24.2654 271.254 27.7722C272.826 29.3446 276.271 30.4411 279.86 30.4411V30.4308Z" fill="#B96753"/>
<path d="M287.061 22.5893C288.964 23.2927 291.385 22.5893 292.316 20.3962C293.247 18.2032 291.643 14.7171 288.333 15.9791C288.333 15.9791 284.154 21.5134 287.061 22.5893Z" fill="#FF9F81"/>
<path d="M272.672 1.93145C275.972 -0.747789 281.496 -0.168494 285.292 0.86596C287.33 1.42456 289.399 2.26247 291.023 3.65899C292.895 5.25204 293.568 7.66232 293.537 10.0623C293.516 11.6139 293.102 13.2173 292.585 14.6656C292.14 15.9276 291.333 17.5414 289.937 17.9344C286.502 18.8861 286.368 14.2001 285.933 12.0794C285.509 10.0416 282.727 9.17262 280.989 8.64505C279.044 8.04507 277.037 7.7037 275.041 7.27957C273.737 7.00027 271.575 6.77269 270.686 5.62444C269.651 4.30034 271.803 2.64522 272.661 1.94179L272.672 1.93145Z" fill="#2A2A63"/>
<path d="M298.481 48.2646C298.481 48.2646 319.232 56.9747 328.552 56.9023C335.338 56.8505 334.076 50.0231 331.759 49.1128L298.491 35.9959C295.098 34.6615 298.481 48.2646 298.481 48.2646Z" fill="#FF9F81"/>
<path d="M358.997 64.0919C358.997 64.0919 335.504 60.0575 329.629 57.699C326.763 56.5507 325.098 54.7404 325.553 52.4232C326.018 50.0543 329.163 48.544 330.642 48.8854C338.597 50.7578 360.962 60.0575 360.962 60.0575L358.997 64.0815V64.0919Z" fill="#FF9F81"/>
<path d="M366.527 60.6055C365.886 57.378 364.53 54.6057 362.813 55.6712C359.648 57.6263 358.934 59.2401 356.658 61.5469C357.382 62.3848 358.996 64.102 358.996 64.102C358.996 64.102 363.279 64.4227 366.527 60.6159V60.6055Z" fill="#FF9F81"/>
<path d="M358.996 64.0917C361.375 64.9192 368.834 65.1365 368.823 63.802C368.823 62.9745 365.761 61.7952 364.282 61.4435" fill="#FF9F81"/>
<path d="M363.6 56.3437C363.6 56.3437 361.376 57.2334 361.541 56.8092C362.079 55.4541 369.403 52.6507 369.993 53.0231C370.334 53.2404 365.286 55.9713 363.6 56.3437Z" fill="#FF9F81"/>
<path d="M364.614 57.9368L363.766 56.2196C363.766 56.2196 371.917 53.6335 372.631 54.0886C373.045 54.3473 364.614 57.9368 364.614 57.9368Z" fill="#FF9F81"/>
<path d="M364.53 59.3025L364.251 57.4404C364.251 57.4404 373.789 55.2991 373.913 56.1474C374.037 57.037 364.53 59.3025 364.53 59.3025Z" fill="#FF9F81"/>
<path d="M363.154 62.1057L365.068 59.0437C366.847 58.2472 373.571 57.9472 373.457 58.6403C373.354 59.2713 366.154 61.1644 363.165 62.1057H363.154Z" fill="#FF9F81"/>
<path d="M314.411 57.2643L320.173 43.0716C320.173 43.0716 302.401 35.1374 296.05 34.0719C291.395 33.2857 289.946 49.5783 289.946 49.5783C290.546 53.1472 314.411 57.2643 314.411 57.2643Z" fill="#FFD859"/>
<path d="M283.968 7.55901C286.502 7.55901 288.933 7.29005 290.609 6.78317C290.774 6.73145 290.878 6.55558 290.826 6.37973C290.775 6.21422 290.599 6.12112 290.423 6.16249C285.716 7.59004 276.106 7.0004 274.047 4.59012C273.623 4.09359 273.561 3.56602 273.851 2.95569C274.12 2.39708 274.668 1.9833 275.485 1.72469C277.554 1.07298 280.751 1.6109 282.333 2.50053C283.12 2.94534 283.492 3.58671 283.264 4.10393C282.851 5.04529 280.72 5.51079 277.037 4.31082C276.861 4.2591 276.685 4.3522 276.634 4.51771C276.582 4.68322 276.675 4.86943 276.84 4.92115C281.216 6.34869 283.357 5.51079 283.864 4.36255C284.237 3.52464 283.751 2.55225 282.664 1.93158C280.937 0.959191 277.565 0.390242 275.309 1.10402C274.316 1.41435 273.634 1.94192 273.282 2.66604C272.878 3.50395 272.982 4.31082 273.561 5.00391C275.061 6.76248 279.654 7.54866 283.968 7.54866V7.55901Z" fill="#1B1B4F"/>
<path d="M354.683 123.066C404.751 151.606 454.818 180.147 504.875 208.698C504.513 208.574 500.572 221.908 500.572 221.908C500.572 221.908 400.965 211.719 363.217 283.561C314.588 255.838 193.784 202.336 193.784 202.336L207.056 196.626C231.418 164.423 292.74 133.845 354.683 123.066Z" fill="white"/>
<path d="M191.023 203.205C195.885 201.136 205.278 200.122 210.119 198.095C189.812 163.192 143.965 130.318 83.7706 112.163C78.8259 114.242 71.5951 116.983 66.6504 119.063C126.349 137.786 169.341 168.396 191.023 203.205Z" fill="white"/>
<path d="M216.387 199.409C216.481 199.409 216.563 199.367 216.636 199.295C245.631 166.192 290.434 143.972 353.597 131.383C353.773 131.352 353.887 131.176 353.856 131C353.825 130.824 353.649 130.711 353.473 130.742C290.165 143.362 245.238 165.644 216.15 198.86C216.036 198.995 216.046 199.202 216.181 199.316C216.243 199.367 216.315 199.398 216.398 199.398L216.387 199.409Z" fill="#4FB0FF"/>
<path d="M319.832 134.683C319.832 134.683 319.894 134.683 319.915 134.673C329.897 131.869 340.604 129.325 351.765 127.1C351.941 127.069 352.055 126.894 352.024 126.718C351.993 126.542 351.817 126.428 351.641 126.459C340.469 128.683 329.742 131.238 319.749 134.042C319.573 134.093 319.48 134.269 319.521 134.445C319.563 134.59 319.687 134.683 319.832 134.683Z" fill="#4FB0FF"/>
<path d="M214.142 194.847C214.235 194.847 214.318 194.805 214.391 194.733C234.759 171.489 262.803 153.862 300.157 140.858C300.323 140.796 300.416 140.621 300.354 140.445C300.292 140.279 300.105 140.186 299.94 140.248C262.482 153.293 234.345 170.971 213.904 194.298C213.791 194.433 213.801 194.64 213.935 194.753C213.998 194.805 214.07 194.836 214.153 194.836L214.142 194.847Z" fill="#4FB0FF"/>
<path d="M202.66 196.678C202.722 196.678 202.784 196.657 202.846 196.626C202.991 196.523 203.032 196.326 202.929 196.181C178.102 159.799 140.955 134.817 82.477 115.183C82.3011 115.132 82.1253 115.214 82.0632 115.39C82.0011 115.556 82.0942 115.742 82.2701 115.804C140.603 135.397 177.657 160.296 202.391 196.554C202.453 196.647 202.556 196.698 202.66 196.698V196.678Z" fill="#4FB0FF"/>
<path d="M196.246 198.188C196.308 198.188 196.37 198.167 196.432 198.136C196.577 198.033 196.619 197.836 196.515 197.692C171.781 161.444 134.593 136.504 75.9496 116.839C75.7841 116.787 75.5979 116.87 75.5358 117.045C75.4738 117.211 75.5669 117.397 75.7427 117.459C134.251 137.083 171.337 161.941 195.977 198.064C196.039 198.157 196.143 198.209 196.246 198.209V198.188Z" fill="#4FB0FF"/>
<path d="M349.118 139.845C399.186 168.385 449.253 196.926 499.31 225.477C445.395 237.559 397.044 262.045 364.056 292.851C313.988 264.31 263.92 235.77 213.863 207.219C238.225 175.016 287.175 150.634 349.118 139.845Z" fill="#1356C5" fill-opacity="0.9"/>
<path d="M221.114 204.105L371.306 289.737C361.169 301.954 344.287 292.851 344.287 292.851L190.194 203.825L189.305 201.663C198.76 205.45 213.614 207.901 221.104 204.105H221.114Z" fill="#1356C5"/>
<path d="M506.552 223.977C507.11 223.977 507.658 223.687 507.958 223.16C508.403 222.384 508.134 221.401 507.358 220.956L357.166 135.324C356.835 135.138 356.463 135.076 356.09 135.138C294.24 145.907 244.721 170.527 220.111 202.75C211.277 205.936 201.708 205.574 193.133 201.705L191.54 200.991C170.985 166.068 124.797 135.676 64.7156 117.552C63.857 117.294 62.957 117.78 62.6984 118.628C62.4398 119.487 62.926 120.387 63.7742 120.645C123.338 138.614 168.989 168.654 189.005 203.06C189.171 203.35 189.429 203.577 189.74 203.722L191.798 204.653C201.305 208.936 211.908 209.277 221.673 205.615C221.963 205.512 222.211 205.326 222.397 205.077C246.335 173.423 295.037 149.145 356.059 138.428L505.745 223.77C505.993 223.915 506.272 223.987 506.541 223.987L506.552 223.977Z" fill="#1356C5"/>
<path d="M288.147 221.98C290.62 217.667 293.009 213.374 295.326 209.112C299.547 210.001 303.685 210.912 307.75 211.843C302.702 193.481 288.22 171.768 275.682 160.73C269.124 163.668 261.479 168.22 256.638 171.758C269.879 187.585 282.892 202.026 288.147 221.98Z" fill="#1356C5"/>
<path d="M282.303 223.584C284.775 219.27 287.165 214.977 289.482 210.715C293.703 211.605 297.84 212.515 301.906 213.446C296.661 193.481 287.641 175.906 274.4 160.079C267.841 163.017 260.197 167.568 255.355 171.106C268.596 186.933 277.058 203.619 282.303 223.584Z" fill="#FF9322"/>
<path d="M208.474 193.047L199.423 191.919C202.402 185.961 214.795 186.199 214.795 186.199L208.474 193.057V193.047Z" fill="#1B1B4F"/>
</svg>
