<svg width="36" height="36" viewBox="0 0 36 36" fill="none" xmlns="http://www.w3.org/2000/svg">
<rect width="28" height="28" transform="translate(4 4)" fill="white"/>
<path d="M15.0475 23.622C14.9418 23.622 14.8352 23.5856 14.7483 23.5116L11.757 20.9645C11.6538 20.8765 11.5945 20.7481 11.5945 20.6124C11.5945 20.4769 11.6541 20.3485 11.757 20.2605L14.7483 17.7134C14.9425 17.5478 15.2343 17.5713 15.3999 17.7655C15.5653 17.96 15.542 18.2518 15.3475 18.4171L12.7697 20.6124L15.3475 22.8076C15.542 22.9732 15.5653 23.265 15.3999 23.4592C15.3083 23.5668 15.1783 23.622 15.0475 23.622Z" fill="#F6430F"/>
<path d="M20.9527 23.622C20.8219 23.622 20.6919 23.5668 20.6006 23.4592C20.435 23.265 20.4585 22.9732 20.6527 22.8076L23.2305 20.6124L20.6527 18.4171C20.4585 18.2518 20.435 17.96 20.6006 17.7655C20.766 17.5713 21.058 17.5478 21.252 17.7134L24.2433 20.2605C24.3464 20.3485 24.4058 20.4769 24.4058 20.6124C24.4058 20.7481 24.3464 20.8765 24.2433 20.9645L21.252 23.5116C21.165 23.5856 21.0585 23.622 20.9527 23.622Z" fill="#F6430F"/>
<path d="M16.941 25.5325C16.9093 25.5325 16.8773 25.5291 16.8451 25.5224C16.5954 25.4698 16.4354 25.2245 16.488 24.9748L18.3523 16.1234C18.4049 15.8737 18.65 15.7137 18.9 15.7664C19.1497 15.819 19.3096 16.0641 19.257 16.314L17.3927 25.1654C17.3468 25.3831 17.1549 25.5325 16.941 25.5325Z" fill="#F6430F"/>
<path d="M28.8962 30.3547H7.10377C5.39247 30.3547 4 28.9625 4 27.2509V8.75465C4 7.04335 5.39247 5.65088 7.10377 5.65088H28.8962C30.6075 5.65088 32 7.04335 32 8.75465V27.2509C32 28.9625 30.6075 30.3547 28.8962 30.3547ZM7.10377 6.57541C5.9022 6.57541 4.92453 7.55308 4.92453 8.75465V27.2509C4.92453 28.4525 5.9022 29.4301 7.10377 29.4301H28.8962C30.0978 29.4301 31.0755 28.4525 31.0755 27.2509V8.75465C31.0755 7.55308 30.0978 6.57541 28.8962 6.57541H7.10377Z" fill="#F6430F"/>
<path d="M31.5377 13.0529H4.46226C4.20688 13.0529 4 12.8461 4 12.5907C4 12.3356 4.20688 12.1284 4.46226 12.1284H31.5377C31.7931 12.1284 32 12.3356 32 12.5907C32 12.8461 31.7931 13.0529 31.5377 13.0529Z" fill="#F6430F"/>
<path d="M11.8982 10.8413C11.0918 10.8413 10.4353 10.1848 10.4353 9.37842C10.4353 8.57178 11.0918 7.91553 11.8982 7.91553C12.7048 7.91553 13.3611 8.57178 13.3611 9.37842C13.3611 10.1848 12.7048 10.8413 11.8982 10.8413ZM11.8982 8.84006C11.6015 8.84006 11.3598 9.08151 11.3598 9.37842C11.3598 9.67533 11.6015 9.91678 11.8982 9.91678C12.1951 9.91678 12.4366 9.67533 12.4366 9.37842C12.4366 9.08151 12.1951 8.84006 11.8982 8.84006Z" fill="#F6430F"/>
<path d="M7.40356 10.8267C6.59692 10.8267 5.94067 10.1704 5.94067 9.36377C5.94067 8.55713 6.59692 7.90088 7.40356 7.90088C8.2102 7.90088 8.86645 8.55713 8.86645 9.36377C8.86645 10.1704 8.2102 10.8267 7.40356 10.8267ZM7.40356 8.82541C7.10691 8.82541 6.8652 9.06712 6.8652 9.36377C6.8652 9.66068 7.10691 9.90213 7.40356 9.90213C7.70048 9.90213 7.94193 9.66068 7.94193 9.36377C7.94193 9.06712 7.70048 8.82541 7.40356 8.82541Z" fill="#F6430F"/>
<path d="M16.3931 10.8552C15.5867 10.8552 14.9304 10.199 14.9304 9.39232C14.9304 8.58594 15.5867 7.92969 16.3931 7.92969C17.1997 7.92969 17.8559 8.58594 17.8559 9.39232C17.8559 10.199 17.1997 10.8552 16.3931 10.8552ZM16.3931 8.85396C16.0964 8.85396 15.8549 9.09541 15.8549 9.39232C15.8549 9.68923 16.0964 9.93068 16.3931 9.93068C16.69 9.93068 16.9314 9.68923 16.9314 9.39232C16.9314 9.09541 16.69 8.85396 16.3931 8.85396Z" fill="#F6430F"/>
</svg>
