<svg width="36" height="36" viewBox="0 0 36 36" fill="none" xmlns="http://www.w3.org/2000/svg">
<path d="M24.3721 4H6.6425C4.73958 4.00246 3.19753 5.54451 3.19507 7.44743V25.1362C3.19753 27.0391 4.73958 28.5811 6.6425 28.5836H12.0599V27.5986H6.6425C5.28322 27.597 4.18165 26.4955 4.18005 25.1362V16.8047H7.34282C7.63468 16.7834 7.85402 16.5295 7.83266 16.2376C7.82853 16.1813 7.81548 16.126 7.79394 16.0739C7.35624 15.0778 7.80883 13.9155 8.80489 13.4778C9.80096 13.0401 10.9632 13.4927 11.4009 14.4888C11.6229 14.9938 11.6229 15.5688 11.4009 16.0739C11.2793 16.3284 11.387 16.6333 11.6415 16.7549C11.7073 16.7864 11.7792 16.8034 11.8521 16.8048H15.0148V19.7597C14.8521 19.732 14.6874 19.7184 14.5223 19.7189C12.8903 19.7183 11.567 21.0408 11.5663 22.6727C11.5659 23.8485 12.2626 24.9126 13.3404 25.3825L13.7343 24.4802C12.7367 24.0462 12.2797 22.8857 12.7137 21.888C13.0268 21.1682 13.7374 20.703 14.5223 20.7038C14.7938 20.7038 15.0622 20.7605 15.3103 20.8703C15.5596 20.9791 15.8499 20.8652 15.9587 20.6159C15.9858 20.5539 15.9997 20.4869 15.9998 20.4192V16.8047H18.5041C18.4761 16.9674 18.4621 17.1322 18.4622 17.2972C18.4652 18.7004 19.452 19.9093 20.8262 20.1931L21.0232 19.2283C20.107 19.0387 19.4493 18.2328 19.4472 17.2972C19.4472 17.0258 19.5039 16.7574 19.6137 16.5092C19.7225 16.26 19.6086 15.9697 19.3593 15.8609C19.2973 15.8338 19.2303 15.8198 19.1626 15.8198H15.9998V13.3154C16.1624 13.3435 16.3272 13.3575 16.4923 13.3573C18.1243 13.3573 19.4472 12.0344 19.4472 10.4024C19.4472 8.77038 18.1243 7.44743 16.4923 7.44743C16.3272 7.44724 16.1624 7.46128 15.9998 7.48929V4.98498H24.3721C25.7314 4.98658 26.833 6.08816 26.8346 7.44743V15.8198H23.6718C23.3998 15.8199 23.1794 16.0405 23.1796 16.3125C23.1796 16.3802 23.1936 16.4472 23.2207 16.5092C23.3305 16.7574 23.3872 17.0258 23.3871 17.2972H24.3721C24.3723 17.1322 24.3583 16.9674 24.3303 16.8047H27.3271C27.599 16.8047 27.8196 16.5842 27.8196 16.3122V7.44743C27.8171 5.54451 26.275 4.00246 24.3721 4ZM16.4923 8.43241C17.5803 8.43241 18.4622 9.31439 18.4622 10.4024C18.4622 11.4903 17.5803 12.3723 16.4923 12.3723C16.2209 12.3724 15.9525 12.3157 15.7043 12.2059C15.455 12.0971 15.1647 12.211 15.0559 12.4602C15.0289 12.5223 15.0149 12.5893 15.0148 12.657V15.7789H12.514C12.5386 15.6296 12.5514 15.4786 12.5524 15.3273C12.5524 15.3184 12.5524 15.3105 12.5524 15.3017C12.5524 15.2928 12.5524 15.2913 12.5524 15.2864C12.5524 13.6544 11.2294 12.3314 9.59743 12.3314C7.96545 12.3314 6.6425 13.6544 6.6425 15.2864C6.6425 15.2913 6.6425 15.2967 6.6425 15.3017C6.6425 15.3066 6.6425 15.3184 6.6425 15.3273C6.64342 15.4786 6.65622 15.6296 6.68091 15.7789H4.18005V7.44743C4.18165 6.08816 5.28322 4.98658 6.6425 4.98498H15.0148V8.14775C15.0149 8.41973 15.2356 8.64011 15.5076 8.63999C15.5753 8.63993 15.6423 8.62596 15.7043 8.59887C15.9525 8.48904 16.2209 8.43235 16.4923 8.43241Z" fill="#F6430F"/>
<path d="M31.691 25.1681L27.5506 22.3171L25.9604 18.0684C25.8655 17.8135 25.582 17.6838 25.327 17.7786C25.3179 17.782 25.3089 17.7857 25.3 17.7896L22.0988 19.2055C21.8588 19.3115 21.7441 19.587 21.8377 19.832C21.8909 19.9699 21.9407 20.0743 21.9934 20.1826C22.0461 20.291 22.0948 20.3924 22.1544 20.5525C22.5367 21.574 22.022 22.7125 21.0025 23.1002C19.9835 23.4813 18.8484 22.9642 18.4672 21.9451C18.3716 21.6895 18.3302 21.4169 18.3455 21.1445C18.3598 20.8729 18.1512 20.6411 17.8795 20.6268C17.8115 20.6232 17.7434 20.6338 17.6797 20.6579L14.2578 21.9467C14.0038 22.0425 13.8751 22.3258 13.9702 22.5801L15.1985 25.8615C15.0357 25.8912 14.8758 25.9354 14.7208 25.9935C13.1882 26.5646 12.4088 28.27 12.9799 29.8026C13.551 31.3351 15.2564 32.1145 16.789 31.5434C16.9468 31.4846 17.0993 31.4124 17.2448 31.3277L18.1254 33.6798C18.2208 33.9345 18.5046 34.0636 18.7593 33.9682C18.7596 33.9681 18.7599 33.968 18.7602 33.9679L23.6398 32.1294C23.9463 32.7883 24.5103 33.2919 25.1995 33.5222L25.5107 32.5865C25.1048 32.4497 24.7674 32.1614 24.5691 31.7818L26.054 31.2228C26.5417 32.5947 27.841 33.5103 29.297 33.5084V32.5234C27.9405 32.5151 26.8429 31.4175 26.8346 30.061C26.8346 29.9304 26.7826 29.8051 26.6903 29.7128L24.9754 27.998C24.7212 27.7415 24.6925 27.3378 24.9079 27.0479C25.0334 26.8786 25.2271 26.7731 25.4374 26.7593C25.648 26.7416 25.8554 26.8192 26.0027 26.9706L29.4413 30.4092L30.1377 29.7128L29.1202 28.6953C29.3709 27.9457 29.3554 27.1325 29.0764 26.3929L28.1534 23.928L31.1296 25.9773C31.524 26.2542 31.7591 26.7059 31.7595 27.1878V33.5493H32.7444V27.1878C32.7438 26.383 32.3506 25.6292 31.691 25.1681ZM28.1539 26.7382C28.29 27.0998 28.3392 27.4882 28.2977 27.8724L26.6991 26.2742C26.0392 25.5975 24.9558 25.5839 24.279 26.2437C23.6023 26.9036 23.5887 27.9871 24.2485 28.6638C24.2585 28.6741 24.2687 28.6843 24.279 28.6943L25.8368 30.2521L18.8769 32.8736L17.9382 30.3654C17.8798 30.2095 17.7466 30.0937 17.5841 30.0575C17.549 30.0498 17.5132 30.0458 17.4772 30.0457C17.3484 30.0456 17.2247 30.096 17.1325 30.1861C16.3417 30.9333 15.0948 30.8979 14.3477 30.107C13.6005 29.3162 13.6359 28.0693 14.4268 27.3221C14.6128 27.1464 14.8312 27.0086 15.0699 26.9164C15.2267 26.8583 15.3905 26.8212 15.557 26.8061C15.6595 26.7935 15.7628 26.7901 15.8658 26.7957C16.1374 26.81 16.3692 26.6013 16.3834 26.3297C16.387 26.2622 16.3766 26.1946 16.3529 26.1314L15.0665 22.6967L17.4117 21.8137C17.7195 23.4164 19.2683 24.4661 20.871 24.1583C21.0347 24.1269 21.1955 24.0816 21.3517 24.023C22.8788 23.4436 23.6507 21.7392 23.0788 20.2092C23.0335 20.088 22.9926 19.992 22.9532 19.9063L25.2187 18.9031L28.1539 26.7382Z" fill="#F6430F"/>
</svg>
