<svg width="56" height="56" viewBox="0 0 56 56" fill="none" xmlns="http://www.w3.org/2000/svg">
<g clip-path="url(#clip0_1050_82392)">
<path d="M68.3361 79.7781C67.2405 89.0951 52.0879 79.7782 39.3046 79.7782C26.5213 79.7782 17.0359 87.999 15.6665 79.7781C15.6665 64.6078 17.6746 43.434 41.3621 43.8976C65.0495 44.3613 65.5972 55.1153 68.3361 79.7781Z" fill="#27746B"/>
<circle opacity="0.2" cx="17" cy="16" r="16" fill="#08BD80"/>
<path d="M15.9876 8.64014C15.5968 8.64014 15.28 8.95694 15.28 9.34773V14.2801H10.3477C9.95694 14.2801 9.64014 14.5969 9.64014 14.9877L9.64014 17.3325C9.64014 17.7233 9.95694 18.0401 10.3477 18.0401H15.28V22.9725C15.28 23.3633 15.5968 23.6801 15.9876 23.6801H18.3324C18.7232 23.6801 19.04 23.3633 19.04 22.9725V18.0401H23.9725C24.3633 18.0401 24.6801 17.7233 24.6801 17.3325V14.9877C24.6801 14.5969 24.3633 14.2801 23.9725 14.2801H19.04V9.34773C19.04 8.95694 18.7232 8.64014 18.3324 8.64014H15.9876Z" fill="#08BD80"/>
<path d="M27.9551 1.10199C27.9936 1.03769 28.0868 1.03769 28.1253 1.10199C29.1324 2.78203 30.5381 4.18781 32.2182 5.19483C32.2825 5.23337 32.2825 5.32655 32.2182 5.36509C30.5381 6.37211 29.1324 7.77789 28.1253 9.45793C28.0868 9.52223 27.9936 9.52223 27.9551 9.45793C26.9481 7.77789 25.5423 6.37211 23.8622 5.36509C23.7979 5.32655 23.7979 5.23337 23.8622 5.19483C25.5423 4.18781 26.9481 2.78203 27.9551 1.10199Z" fill="#FFC754"/>
<path d="M5.2665 24.7296C5.29076 24.6891 5.34943 24.6891 5.3737 24.7296C6.00775 25.7874 6.89287 26.6725 7.95067 27.3065C7.99116 27.3308 7.99116 27.3895 7.95067 27.4137C6.89287 28.0478 6.00775 28.9329 5.3737 29.9907C5.34943 30.0312 5.29076 30.0312 5.2665 29.9907C4.63245 28.9329 3.74733 28.0478 2.68952 27.4137C2.64904 27.3895 2.64904 27.3308 2.68952 27.3065C3.74733 26.6725 4.63245 25.7874 5.2665 24.7296Z" fill="#FFC754"/>
<path d="M10.3714 25.3948C10.4024 25.3429 10.4776 25.3429 10.5086 25.3948C10.7891 25.8651 11.2035 26.241 11.6988 26.4744L11.722 26.4853C11.7849 26.515 11.7849 26.6046 11.722 26.6343L11.6988 26.6452C11.2035 26.8786 10.7891 27.2545 10.5086 27.7247C10.4776 27.7767 10.4024 27.7767 10.3714 27.7247C10.0909 27.2545 9.67649 26.8786 9.18119 26.6452L9.15804 26.6343C9.09506 26.6046 9.09506 26.515 9.15804 26.4853L9.18119 26.4744C9.67649 26.241 10.0909 25.8651 10.3714 25.3948Z" fill="white"/>
<path d="M26.2129 23.1667C26.2414 23.1128 26.3186 23.1128 26.3471 23.1667C26.5924 23.6293 26.9708 24.0076 27.4334 24.2529C27.4872 24.2815 27.4872 24.3586 27.4334 24.3872C26.9708 24.6324 26.5924 25.0108 26.3471 25.4734C26.3186 25.5273 26.2414 25.5273 26.2129 25.4734C25.9676 25.0108 25.5892 24.6324 25.1266 24.3872C25.0728 24.3586 25.0728 24.2815 25.1266 24.2529C25.5892 24.0076 25.9676 23.6293 26.2129 23.1667Z" fill="white"/>
<path d="M6.23802 8.07914C6.25587 8.04548 6.30409 8.04548 6.32194 8.07914C6.47523 8.36826 6.71172 8.60475 7.00084 8.75804C7.0345 8.77589 7.0345 8.82411 7.00084 8.84196C6.71172 8.99525 6.47523 9.23174 6.32194 9.52086C6.30409 9.55452 6.25587 9.55452 6.23802 9.52086C6.08473 9.23174 5.84824 8.99525 5.55913 8.84196C5.52546 8.82411 5.52546 8.77589 5.55913 8.75804C5.84824 8.60475 6.08473 8.36826 6.23802 8.07914Z" fill="white"/>
<path d="M22.3066 53.5095L27.6807 58.1277L23.7073 58.5886L21.6797 53.9738C21.5085 53.584 21.9837 53.232 22.3066 53.5095Z" fill="#17383D"/>
<ellipse cx="41.0162" cy="45.1249" rx="10.3014" ry="3.97597" fill="#27746B"/>
<rect x="28.9082" y="12.9551" width="25.6631" height="20.9642" rx="5.7329" fill="#081A3D"/>
<path d="M36.1134 36.415H46.3523L45.9299 43.0648C45.8844 43.7812 46.2227 44.4679 46.8185 44.8682C47.8246 45.5443 47.6799 47.0667 46.5645 47.5412L44.4055 48.4596C42.3527 49.3329 40.0359 49.3495 37.9708 48.5056L35.7442 47.5959C34.5648 47.114 34.4291 45.4979 35.5118 44.8261C36.2312 44.3797 36.643 43.5706 36.5805 42.7262L36.1134 36.415Z" fill="#F9B8A4"/>
<path d="M44.7925 36.8325L36.1133 36.9827L36.2555 38.6195L36.3977 40.2563L36.4688 41.2169C37.8147 41.4043 39.1819 41.376 40.5189 41.1329L41.2028 41.0085C42.9328 40.694 44.3613 39.4762 44.9457 37.8178L44.97 37.749C45.081 37.4339 45.0132 37.0834 44.7925 36.8325Z" fill="#F49D82"/>
<path d="M27.4789 26.2409C27.249 24.6525 28.4808 23.2295 30.0858 23.2295H53.3934C54.9983 23.2295 56.2302 24.6525 56.0003 26.2409L55.9231 26.7741C55.7355 28.0696 54.6252 29.0308 53.3162 29.0308H30.163C28.854 29.0308 27.7436 28.0696 27.5561 26.7741L27.4789 26.2409Z" fill="#F9B8A4"/>
<path d="M54.3201 21.7753C54.3201 29.3595 51.5097 39.8595 41.944 39.8595C31.6834 39.8595 29.5679 29.3595 29.5679 21.7753C29.5679 14.1912 35.1088 8.04297 41.944 8.04297C48.7791 8.04297 54.3201 14.1912 54.3201 21.7753Z" fill="#F9B8A4"/>
<rect x="31.8662" y="27.4312" width="5.85996" height="5.85996" rx="2.92998" fill="#F49D82"/>
<rect x="46.0869" y="27.4312" width="5.85996" height="5.85996" rx="2.92998" fill="#F49D82"/>
<path d="M41.4508 26.3345C40.874 27.757 39.9182 30.6524 40.7092 30.8532C41.5002 31.0541 42.522 30.9369 42.934 30.8532" stroke="#DB8C74" stroke-width="0.682598" stroke-linecap="round" stroke-linejoin="round"/>
<rect x="36.0005" y="25.9932" width="1.7342" height="2.05366" rx="0.8671" fill="#081A3D"/>
<rect x="45.1099" y="25.9932" width="1.7342" height="2.05366" rx="0.8671" fill="#081A3D"/>
<path d="M51.1047 8.77504C50.3882 6.61016 44.5985 4.04885 40.652 5.35487C38.278 6.14048 36.3846 7.47164 35.4086 8.87895C35.258 8.86948 35.1046 8.87024 34.9489 8.88094C34.3507 8.89943 33.7289 9.00306 33.1077 9.20032C30.3463 10.0772 27.2364 12.9188 27.8961 14.9964C27.9825 15.2683 28.1291 15.5137 28.3251 15.7329C27.5491 18.1891 27.4571 20.7397 28.6265 21.7027C28.7701 24.1113 29.3028 26.6405 29.9516 26.6437C30.5941 26.6469 31.1473 24.1712 31.3204 21.7852C33.1415 21.0682 35.242 19.2463 36.5477 17.3531C36.6998 17.7038 36.9081 18.0484 37.1719 18.3704C38.3424 19.7992 40.7587 20.9713 41.8337 20.0907C42.0455 19.9172 42.1895 19.6769 42.2751 19.392C45.5051 20.9879 49.5111 21.8611 51.9059 21.1656C52.0073 23.719 52.6337 26.6406 53.4071 26.6445C54.261 26.6487 54.9707 23.0946 54.984 20.3993C54.9918 18.8127 54.7589 17.4018 54.3918 16.5087C54.2222 14.3367 53.0495 11.9311 50.7511 10.1771C51.1333 9.76789 51.2812 9.30837 51.1047 8.77504Z" fill="#081A3D"/>
<path d="M33.7701 25.1758C33.4854 24.2224 35.3375 23.2436 37.0614 23.0412C37.6769 22.969 38.1714 23.4609 38.2466 24.076C38.2682 24.2529 38.1128 24.4029 37.9347 24.3985C36.3917 24.3606 33.8476 25.4352 33.7701 25.1758Z" fill="#081A3D"/>
<path d="M48.6682 25.0364C48.8924 24.067 46.9824 23.2067 45.2491 23.1132C44.6304 23.0798 44.1678 23.6019 44.1315 24.2204C44.121 24.3984 44.2855 24.5383 44.463 24.5227C46.0006 24.3877 48.6072 25.3002 48.6682 25.0364Z" fill="#081A3D"/>
<rect x="49.4263" y="45.4863" width="0.722903" height="28.5547" rx="0.361452" fill="#17383D"/>
<rect x="32.8838" y="45.4863" width="0.722903" height="28.5547" rx="0.361452" fill="#17383D"/>
<circle cx="32.9846" cy="45.5222" r="0.853247" fill="#17383D"/>
<circle cx="49.9118" cy="45.5222" r="0.853247" fill="#17383D"/>
<path d="M42 34C43.5 34 45.5 33.5 46.5 31" stroke="#DB8C74" stroke-width="0.682598" stroke-linecap="round" stroke-linejoin="round"/>
<path d="M6.36914 44.8985C6.95724 46.0138 9.81558 46.9441 12.3172 45.6251C14.8188 44.3061 16.3687 42.1035 15.7806 40.9881C15.1925 39.8728 12.6891 40.267 10.1875 41.586C7.68589 42.905 5.92232 44.051 6.36914 44.8985Z" fill="#17383D"/>
<path d="M12.3973 30.0252C12.5559 28.2285 12.64 25.8078 12.1003 24.7339C11.0616 22.6671 10.5116 27.6509 10.3483 29.4958C10.31 29.9295 10.1513 30.7854 9.8359 30.4853C9.78766 30.4394 9.74117 30.3554 9.6997 30.2184C9.52858 29.6533 9.34743 28.8735 9.1497 28.0224C8.56073 25.487 7.82467 22.3186 6.7684 22.3041C5.5479 22.2874 6.24225 25.5158 6.85018 28.3424C7.09141 29.464 7.31903 30.5223 7.40803 31.2895C7.39218 31.5053 7.32544 31.59 7.24201 31.6055C6.92295 31.6648 6.76961 31.2327 6.65741 30.9166C6.65282 30.9037 6.6483 30.8909 6.64384 30.8784C6.1203 29.4111 4.50679 25.0991 3.69935 25.319C2.43633 25.6629 4.04014 30.2676 4.69765 32.011C4.85389 32.4253 4.63061 33.1345 4.37505 32.7729C4.36845 32.7636 4.3619 32.7537 4.35542 32.7432C4.13111 32.5379 3.7287 32.0085 3.27346 31.4096C2.35733 30.2043 1.22726 28.7176 0.904121 29.0241C0.206559 29.6857 1.6192 32.0252 2.49371 33.3219L5.09659 38.909C5.59969 39.9889 6.39447 40.9068 7.39132 41.5592L10.3124 51.1103L15.0267 44.9013L13.559 39.6688C13.559 39.6688 17.5827 30.3288 15.1853 31.3894C13.8025 32.0011 13.2207 34.4331 12.892 35.1756C12.8521 35.2656 12.5696 35.2269 12.5663 35.1285L12.3973 30.0252Z" fill="#F9B8A4"/>
<mask id="mask0_1050_82392" style="mask-type:alpha" maskUnits="userSpaceOnUse" x="2" y="29" width="14" height="23">
<path d="M13.5585 39.6686L15.0262 44.9011L10.3119 51.1101L7.3908 41.559C6.39395 40.9066 5.59917 39.9887 5.09608 38.9088L2.38079 33.0804L8.52475 33.9784L12.3795 29.5046L12.5984 36.1138C12.5986 36.1199 12.5995 36.126 12.6012 36.132L13.5585 39.6686Z" fill="#F9B8A4"/>
</mask>
<g mask="url(#mask0_1050_82392)">
<path d="M5.27031 43.7737C5.58281 43.4553 6.25848 41.8871 6.08251 41.1066L6.64104 41.2863C7.79639 41.6578 8.99883 41.8627 10.212 41.8948C10.5418 41.9035 10.6523 42.2887 10.3577 42.4372C8.29738 43.4758 4.99983 44.0492 5.27031 43.7737Z" fill="#F49D82"/>
</g>
<path d="M6.36924 44.8985C6.36924 44.8985 12.568 48.0047 15.7807 40.9883L27.5254 62.8813C29.2347 66.0674 32.8685 67.7109 36.3898 66.8904L45.9084 64.6726L26.9829 92.4364L6.36924 44.8985Z" fill="#27746B"/>
</g>
<defs>
<clipPath id="clip0_1050_82392">
<rect width="56" height="56" rx="7" fill="white"/>
</clipPath>
</defs>
</svg>
